<svg version="1.1" xmlns="http://www.w3.org/2000/svg" xmlns:xlink="http://www.w3.org/1999/xlink" width="800px" height="800px" viewBox="0,0,256,256"><g fill="#ce1616" fill-rule="evenodd" stroke="none" stroke-width="1" stroke-linecap="butt" stroke-linejoin="miter" stroke-miterlimit="10" stroke-dasharray="" stroke-dashoffset="0" font-family="none" font-weight="none" font-size="none" text-anchor="none" style="mix-blend-mode: normal"><g transform="scale(4.26667,4.26667)"><path transform="translate(-910,-450)" d="M940,510c-16.56854,0 -30,-13.43146 -30,-30c0,-16.56854 13.43146,-30 30,-30c16.56854,0 30,13.43146 30,30c0,16.56854 -13.43146,30 -30,30zM955,489.953c1.32915,1.3306 1.32915,3.4864 0,4.817l-0.221,0.22c-1.33518,1.33319 -3.49782,1.33319 -4.833,0l-8.764,-8.755c-0.66765,-0.66693 -1.74935,-0.66693 -2.417,0l-8.741,8.747c-0.64122,0.64143 -1.51103,1.0018 -2.418,1.0018c-0.90697,0 -1.77678,-0.36037 -2.418,-1.0018l-0.194,-0.193c-0.64375,-0.64228 -1.00411,-1.51519 -1.00092,-2.42454c0.00319,-0.90935 0.36968,-1.77972 1.01792,-2.41746l8.834,-8.735c0.32679,-0.3198 0.51098,-0.75776 0.51098,-1.215c0,-0.45724 -0.18419,-0.8952 -0.51098,-1.215l-8.831,-8.725c-0.64874,-0.63782 -1.01563,-1.50848 -1.01901,-2.41825c-0.00338,-0.90976 0.35702,-1.78313 1.00101,-2.42575l0.193,-0.193c0.64114,-0.64133 1.51116,-1.00114 2.418,-1c0.944,0 3.255,1.835 3.872,2.455l7.286,7.287c0.32037,0.32078 0.75514,0.50102 1.2085,0.50102c0.45336,0 0.88813,-0.18025 1.2085,-0.50102l8.764,-8.748c1.33484,-1.33307 3.49716,-1.33307 4.832,0l0.222,0.229c1.32981,1.33072 1.32981,3.48728 0,4.818l-8.727,8.737c-0.31968,0.31893 -0.49934,0.75194 -0.49934,1.2035c0,0.45156 0.17966,0.88457 0.49934,1.2035z" id="uncheck"></path></g></g></svg>