<svg version="1.1" xmlns="http://www.w3.org/2000/svg" xmlns:xlink="http://www.w3.org/1999/xlink" width="800px" height="800px" viewBox="0,0,256,256"><g fill="#ffffff" fill-rule="nonzero" stroke="none" stroke-width="1" stroke-linecap="butt" stroke-linejoin="miter" stroke-miterlimit="10" stroke-dasharray="" stroke-dashoffset="0" font-family="none" font-weight="none" font-size="none" text-anchor="none" style="mix-blend-mode: normal"><g transform="translate(-0.0001,-0.00009) scale(0.5,0.5)"><g><g><path d="M502.078,215.96l-24.902,-4.774c-6.629,-1.271 -13.034,3.072 -14.306,9.702c-2.036,10.617 -1.943,9.967 -2.051,10.969l-2.607,1.87l0.433,-86.188c0.028,-5.626 -3.958,-10.474 -9.484,-11.533l-191.711,-36.758c-5.523,-1.064 -11.021,1.969 -13.078,7.207l-31.558,80.443l-1.892,-2.956c0.09,-0.323 0.177,-0.648 0.24,-0.983l1.911,-9.967c1.271,-6.629 -3.072,-13.033 -9.702,-14.306l-24.902,-4.774c-6.629,-1.271 -13.034,3.072 -14.306,9.702l-1.911,9.967c-1.271,6.63 3.072,13.034 9.702,14.306l23.432,4.492l9.472,14.794l-1.018,2.593c-12.502,8.271 -21.799,21.368 -24.845,37.253l-9.043,47.165c-2.247,11.714 5.43,23.032 17.144,25.278l2.247,0.431l-4.668,24.343c-2.872,14.98 6.943,29.452 21.922,32.325c0.204,0.039 0.408,0.068 0.612,0.102h-46.162c-4.948,0 -8.959,4.011 -8.959,8.959v18.379c0,4.948 4.011,8.959 8.959,8.959h97.608c4.948,0 8.959,-4.011 8.959,-8.959v-18.379c0,-4.948 -4.011,-8.959 -8.959,-8.959h-42.223c11.028,-1.88 20.258,-10.391 22.488,-22.026l4.668,-24.344l24.508,4.699l-1.464,7.64c-1.149,5.994 2.779,11.786 8.773,12.936l62.261,11.938c5.994,1.149 11.786,-2.779 12.936,-8.773l1.464,-7.639l24.508,4.699l-4.668,24.343c-2.872,14.979 6.943,29.452 21.922,32.325c15.01,2.873 29.457,-6.968 32.323,-21.922l4.668,-24.344l2.247,0.431c11.714,2.246 23.032,-5.429 25.278,-17.144l9.043,-47.165c3.046,-15.886 -0.747,-31.492 -9.303,-43.801l0.016,-3.009l14.027,-10.066l23.433,4.493c6.629,1.271 13.034,-3.072 14.306,-9.702l1.911,-9.967c1.275,-6.629 -3.069,-13.034 -9.699,-14.305zM251.291,268.252c-2.521,13.149 -15.218,21.767 -28.359,19.247c-13.141,-2.52 -21.75,-15.222 -19.229,-28.371c2.521,-13.149 15.218,-21.767 28.359,-19.247c13.141,2.52 21.75,15.223 19.229,28.371zM246.541,201.212c-4.671,-0.896 -9.317,-1.189 -13.865,-0.956l29.906,-76.232l63.963,12.264c-1.389,1.393 -2.39,3.201 -2.789,5.279c-1.062,5.538 2.567,10.887 8.104,11.949l28.095,5.387c5.538,1.062 10.887,-2.567 11.949,-8.103c0.398,-2.077 0.137,-4.128 -0.639,-5.936l63.964,12.264l-0.412,81.887c-7.104,-3.259 -12.393,-4.079 -16.886,-4.94c2.404,-19.973 -10.994,-38.682 -31.102,-42.537c-20.028,-3.843 -39.466,8.6 -44.628,28.017zM350.767,322.363c-0.914,4.772 -5.526,7.916 -10.318,6.998l-53.513,-10.26c-4.781,-0.917 -7.914,-5.536 -6.998,-10.318c0.917,-4.782 5.536,-7.914 10.318,-6.998l53.513,10.26c4.782,0.918 7.916,5.537 6.998,10.318zM371.387,292.117c-0.914,4.773 -5.527,7.916 -10.318,6.998l-82.102,-15.742c-4.781,-0.917 -7.914,-5.536 -6.998,-10.318c0.917,-4.782 5.539,-7.912 10.318,-6.998l82.102,15.742c4.781,0.917 7.914,5.536 6.998,10.318zM361.437,223.242c3.062,-8.864 12.252,-14.397 21.727,-12.579c9.434,1.808 15.99,10.239 15.536,19.723zM439.962,304.428c-2.521,13.149 -15.218,21.767 -28.359,19.247c-13.141,-2.52 -21.75,-15.222 -19.229,-28.371c2.521,-13.149 15.218,-21.767 28.359,-19.247c13.142,2.52 21.751,15.222 19.229,28.371z"></path></g></g><g><g><path d="M154.875,297.721c6.959,-20.1 3.334,-9.632 7.731,-22.333c1.506,-4.349 -0.8,-9.096 -5.149,-10.6c-4.349,-1.507 -9.097,0.799 -10.601,5.149c-5.601,16.18 -2.209,6.38 -9.82,28.365l-36.099,4.613l-33.902,-45.785l17.454,12.136c2.937,-10.25 -2.992,-20.939 -13.242,-23.876c-13.039,-3.736 -27.373,-2.046 -39.459,5.291c-11.84,7.188 -20.141,18.993 -22.901,32.567l-8.193,40.301c-4.182,20.571 11.049,40.067 32.102,40.9c2.533,0.567 3,0.386 18.803,0.34c-2.556,1.57 -27.077,16.633 -31.573,19.396c-7.311,4.492 -9.598,14.06 -5.106,21.371c4.497,7.32 14.069,9.593 21.371,5.107l78.68,-48.335c5.932,-3.644 8.717,-10.79 6.813,-17.487c-0.338,-1.19 -0.816,-2.31 -1.401,-3.354c-23.132,2.957 -19.628,2.509 -27.261,3.484c-9.026,1.154 -17.334,-4.074 -20.584,-11.976c-4.852,-11.81 -18.218,-44.341 -22.996,-55.971l35.101,47.402c2.808,3.789 7.431,5.728 12.048,5.136l54.928,-7.02c7.093,-0.906 12.108,-7.391 11.202,-14.484c-0.611,-4.791 -3.775,-8.627 -7.946,-10.337z"></path></g></g><g><g><circle cx="83.713" cy="209.066" r="28.163"></circle></g></g></g></g></svg>