<svg version="1.1" xmlns="http://www.w3.org/2000/svg" xmlns:xlink="http://www.w3.org/1999/xlink" width="800px" height="800px" viewBox="0,0,256,256"><g fill="#ffffff" fill-rule="nonzero" stroke="none" stroke-width="1" stroke-linecap="butt" stroke-linejoin="miter" stroke-miterlimit="10" stroke-dasharray="" stroke-dashoffset="0" font-family="none" font-weight="none" font-size="none" text-anchor="none" style="mix-blend-mode: normal"><g transform="translate(0.05315,0) scale(10.66667,10.66667)"><path d="M16.19,2h-8.38c-3.64,0 -5.81,2.17 -5.81,5.81v8.37c0,3.65 2.17,5.82 5.81,5.82h8.37c3.64,0 5.81,-2.17 5.81,-5.81v-8.38c0.01,-3.64 -2.16,-5.81 -5.8,-5.81zM5.25,11.89c0.03,-1.76 0.73,-3.42 1.97,-4.66c1.28,-1.28 2.98,-1.98 4.78,-1.98c1.8,0 3.5,0.7 4.77,1.98c0.03,0.03 0.06,0.07 0.09,0.11v-0.86c0,-0.41 0.34,-0.75 0.75,-0.75c0.41,0 0.75,0.34 0.75,0.75v2.65c0,0.41 -0.34,0.75 -0.75,0.75h-2.65c-0.41,0 -0.75,-0.34 -0.75,-0.75c0,-0.41 0.34,-0.75 0.75,-0.75h0.83c-0.03,-0.03 -0.05,-0.06 -0.08,-0.09c-0.99,-0.99 -2.31,-1.54 -3.71,-1.54c-1.4,0 -2.72,0.55 -3.71,1.54c-0.97,0.97 -1.51,2.26 -1.53,3.63c-0.01,0.4 -0.35,0.73 -0.76,0.73h-0.01c-0.41,0 -0.74,-0.35 -0.74,-0.76zM16.77,16.77c-1.27,1.27 -2.97,1.98 -4.77,1.98c-1.8,0 -3.5,-0.7 -4.77,-1.98c-0.03,-0.03 -0.06,-0.07 -0.09,-0.11v0.85c0,0.41 -0.34,0.75 -0.75,0.75c-0.41,0 -0.75,-0.34 -0.75,-0.75v-2.65c0,-0.41 0.34,-0.75 0.75,-0.75h2.65c0.41,0 0.75,0.34 0.75,0.75c0,0.41 -0.34,0.75 -0.75,0.75h-0.83c0.03,0.03 0.05,0.06 0.08,0.09c0.99,0.99 2.31,1.54 3.71,1.54c1.4,0 2.72,-0.55 3.71,-1.54c0.98,-0.98 1.53,-2.29 1.53,-3.69c0,-0.41 0.34,-0.75 0.75,-0.75c0.41,0 0.75,0.34 0.75,0.75c0,1.81 -0.7,3.5 -1.97,4.76z"></path></g></g></svg>